# xmcd
#
# Track frame offsets:
#	150
#	3415
#	16687
#	31349
#	45936
#	56160
#	73129
#	86511
#	100398
#	119797
#	133542
#	147587
#	190937
#	210957
#	226169
#	241756
#	248741
#	266290
#	275287
#	286047
#	304724
#	321556
#
# Disc length: 4467
#
# Revision: 1
# Processed by: cddbd v1.5.1PL0 Copyright (c) Steve Scherf et al.
# Submitted via: ExactAudioCopy v0.90b4
# Normalized: r0:DSETVAR1,TDELIM( - )
#
DISCID=2f117116
DTITLE=Various Artist - Clarkie's Christmas Disc
DYEAR=2003
DGENRE=Bluegrass
TTITLE0=We Wish You a Merry Christmas - David Grisman
TTITLE1=Christmas Time's A Comin' - Peter Rowan
TTITLE2=Twelve Days of Christmas - Nashville Superpickers
TTITLE3=I'll Be Home for Christmas - Brother Boys
TTITLE4=Little Drummer Boy - Nina Gerber
TTITLE5=On a Quiet Night - Psychograss
TTITLE6=The Christmas Song - Larry Coryell
TTITLE7=What Child is This? - Dan Crary
TTITLE8=White Christmas - David Grisman
TTITLE9=First Noel>Midnight Clear>Joy - Doyle Lawson and Quicksilver
TTITLE10=The Last Month of the Year - Fairfield Four
TTITLE11=God Rest Ye Merry Gentlemen - Garcia and Grisman
TTITLE12=Bring a Torch, Jeanette Isabella - Chris Thile
TTITLE13=We Three Kings - Emily Remler
TTITLE14=Away in the Manger - Jerry Douglas
TTITLE15=The Christmas Song - Michelle Shocked
TTITLE16=Sleigh Ride - Sam Bush
TTITLE17=What Child Is This? - Larry Coryell
TTITLE18=God Rest Ye Merry Gentlemen - Taj Mahal
TTITLE19=The Christmas Song - David Grisman
TTITLE20=Christmas Swing - Chesapeake
TTITLE21=That White Christmas Song - Red Knuckles and the Trailblazers
EXTD=
EXTT0=
EXTT1=
EXTT2=
EXTT3=
EXTT4=
EXTT5=
EXTT6=
EXTT7=
EXTT8=
EXTT9=
EXTT10=
EXTT11=
EXTT12=
EXTT13=
EXTT14=
EXTT15=
EXTT16=
EXTT17=
EXTT18=
EXTT19=
EXTT20=
EXTT21=
PLAYORDER=
